<svg width="199" height="40" viewBox="0 0 199 40" fill="none" xmlns="http://www.w3.org/2000/svg">
<path d="M141.699 20.671C142.092 20.2831 142.096 19.65 141.709 19.2568L135.388 12.8494C135.001 12.4562 134.367 12.4519 133.974 12.8397C133.581 13.2276 133.577 13.8607 133.965 14.2539L139.583 19.9494L133.887 25.5673C133.494 25.9552 133.49 26.5883 133.877 26.9815C134.265 27.3747 134.898 27.379 135.292 26.9912L141.699 20.671ZM0.99315 20L140.99 20.959L141.004 18.9591L1.00685 18L0.99315 20Z" fill="#8800FF"/>
<path d="M178 10.38H179.71V12.42C180.53 12.5267 181.233 12.7733 181.82 13.16C182.407 13.5467 182.86 14.0267 183.18 14.6C183.507 15.1733 183.683 15.79 183.71 16.45L181.83 16.55C181.683 15.69 181.367 15.04 180.88 14.6C180.4 14.1533 179.723 13.93 178.85 13.93C178.297 13.93 177.773 14.0233 177.28 14.21C176.793 14.3967 176.397 14.6733 176.09 15.04C175.783 15.4 175.63 15.85 175.63 16.39C175.63 16.9167 175.81 17.3333 176.17 17.64C176.537 17.94 177.2 18.2333 178.16 18.52L180.56 19.2C181.787 19.5467 182.66 20.0767 183.18 20.79C183.707 21.5033 183.97 22.33 183.97 23.27C183.97 23.97 183.787 24.5967 183.42 25.15C183.06 25.7033 182.55 26.1567 181.89 26.51C181.237 26.8567 180.47 27.0733 179.59 27.16V29.09H177.88V27.16C176.593 27.04 175.533 26.6567 174.7 26.01C173.867 25.3567 173.363 24.4533 173.19 23.3L175.13 23.18C175.343 24 175.77 24.6133 176.41 25.02C177.05 25.42 177.837 25.62 178.77 25.62C179.33 25.62 179.853 25.5267 180.34 25.34C180.833 25.1467 181.23 24.8767 181.53 24.53C181.837 24.1767 181.99 23.7633 181.99 23.29C181.99 22.6567 181.8 22.15 181.42 21.77C181.04 21.39 180.443 21.09 179.63 20.87L177.14 20.22C176.067 19.9467 175.217 19.5167 174.59 18.93C173.963 18.3433 173.647 17.5567 173.64 16.57C173.633 15.8167 173.813 15.1467 174.18 14.56C174.547 13.9667 175.057 13.4833 175.71 13.11C176.37 12.7367 177.133 12.5033 178 12.41V10.38Z" fill="#8800FF"/>
<circle cx="179" cy="20" r="19" stroke="#8800FF" stroke-width="2"/>
</svg>
