<svg width="26" height="23" viewBox="0 0 26 23" fill="none" xmlns="http://www.w3.org/2000/svg">
<path d="M6.76147 13.4144L9.03429 20.3658C9.0713 20.4801 9.1357 20.5835 9.22186 20.6672C9.30802 20.7509 9.41334 20.8122 9.52863 20.8458C9.64392 20.8794 9.76569 20.8843 9.88331 20.8601C10.0009 20.8359 10.1109 20.7833 10.2035 20.7069L16.992 15.1026C16.992 15.1026 9.77816 12.292 9.77816 12.4438C9.77816 12.5955 6.76147 13.4144 6.76147 13.4144Z" fill="#B5D1DB"/>
<path d="M24.6684 0.054768C20.2371 1.80857 5.92941 7.68079 0.514373 9.89177C0.35696 9.95594 0.223169 10.0671 0.131243 10.2101C0.0393163 10.3531 -0.00627172 10.521 0.000694333 10.6908C0.00766038 10.8606 0.0668415 11.0242 0.170169 11.1592C0.273496 11.2942 0.41594 11.394 0.578079 11.4451L6.76134 13.4144L9.02666 20.3471C9.06833 20.4756 9.14396 20.5905 9.24555 20.6795C9.34714 20.7686 9.47091 20.8285 9.60376 20.853C9.81175 20.8905 10.119 15.2394 10.119 15.2394C10.119 15.2394 16.619 20.0604 19.7031 22.337C19.8777 22.4682 20.0829 22.5527 20.2992 22.5825C20.5156 22.6123 20.736 22.5864 20.9396 22.5072C21.1431 22.4281 21.3231 22.2983 21.4625 22.1301C21.6019 21.9619 21.696 21.761 21.7361 21.5463L25.7271 0.935414C25.754 0.797225 25.7433 0.654329 25.6961 0.521694C25.6489 0.38906 25.5668 0.271569 25.4586 0.181529C25.3504 0.0914889 25.2199 0.0322134 25.0809 0.00991177C24.9419 -0.0123898 24.7994 0.00310321 24.6684 0.054768Z" fill="white"/>
<path d="M9.6039 20.8511C9.81188 20.8905 10.1192 15.2394 10.1192 15.2394L20.7993 5.20936C20.8151 5.19565 20.8251 5.17645 20.8273 5.15566C20.8294 5.13486 20.8236 5.11403 20.811 5.09736C20.7984 5.08069 20.7799 5.06944 20.7593 5.06588C20.7387 5.06233 20.7175 5.06673 20.7 5.0782L6.76147 13.4144L9.0268 20.3471C9.06875 20.4753 9.1445 20.5897 9.24607 20.6784C9.34764 20.7671 9.47126 20.8268 9.6039 20.8511Z" fill="#D6E2EA"/>
</svg>
