<svg width="37" height="37" viewBox="0 0 37 37" fill="none" xmlns="http://www.w3.org/2000/svg">
<mask id="path-1-inside-1" fill="white">
<path fill-rule="evenodd" clip-rule="evenodd" d="M24.79 0H11.84V11.84H0V24.79H11.84V37H24.79V24.79H37V11.84H24.79V0Z"/>
</mask>
<path fill-rule="evenodd" clip-rule="evenodd" d="M24.79 0H11.84V11.84H0V24.79H11.84V37H24.79V24.79H37V11.84H24.79V0Z" fill="#151516"/>
<path d="M11.84 0V-1H10.84V0H11.84ZM24.79 0H25.79V-1H24.79V0ZM11.84 11.84V12.84H12.84V11.84H11.84ZM0 11.84V10.84H-1V11.84H0ZM0 24.79H-1V25.79H0V24.79ZM11.84 24.79H12.84V23.79H11.84V24.79ZM11.84 37H10.84V38H11.84V37ZM24.79 37V38H25.79V37H24.79ZM24.79 24.79V23.79H23.79V24.79H24.79ZM37 24.79V25.79H38V24.79H37ZM37 11.84H38V10.84H37V11.84ZM24.79 11.84H23.79V12.84H24.79V11.84ZM11.84 1H24.79V-1H11.84V1ZM12.84 11.84V0H10.84V11.84H12.84ZM0 12.84H11.84V10.84H0V12.84ZM1 24.79V11.84H-1V24.79H1ZM11.84 23.79H0V25.79H11.84V23.79ZM12.84 37V24.79H10.84V37H12.84ZM24.79 36H11.84V38H24.79V36ZM23.79 24.79V37H25.79V24.79H23.79ZM37 23.79H24.79V25.79H37V23.79ZM36 11.84V24.79H38V11.84H36ZM24.79 12.84H37V10.84H24.79V12.84ZM23.79 0V11.84H25.79V0H23.79Z" fill="#8800FF" mask="url(#path-1-inside-1)"/>
</svg>
