<svg width="118" height="25" viewBox="0 0 118 25" fill="none" xmlns="http://www.w3.org/2000/svg">
<path d="M0 3.43609C0.12266 3.50995 0.237914 3.59543 0.344167 3.69134C2.31083 5.7399 4.25947 7.78847 6.19008 9.83703C6.27858 9.93521 6.34742 10.053 6.44083 10.1806L7.06525 9.64068V13.2044L1.92242 8.2957C1.92242 9.02219 1.92242 9.76831 1.92242 10.5488C1.92242 10.6568 2.06992 10.7648 2.16333 10.858C3.67767 12.3061 5.18217 13.7591 6.70633 15.1924C6.83425 15.302 6.935 15.4397 7.00068 15.5947C7.06637 15.7497 7.0952 15.9178 7.08492 16.0858C7.08492 18.0886 7.08492 20.0913 7.08492 22.094V22.7076C6.76042 22.3886 6.5195 22.1579 6.28842 21.9222L0 15.5213V3.43609ZM1.91258 12.851C1.91258 13.3713 1.91258 13.9947 1.91258 14.6181C1.92846 14.8416 2.02041 15.0529 2.17317 15.217C3.01883 16.0858 3.88908 16.9301 4.75442 17.7793C5.03467 18.0542 5.32475 18.3193 5.68367 18.6531C5.68367 17.9118 5.68367 17.2737 5.68367 16.6356C5.68298 16.5328 5.64245 16.4343 5.57058 16.3607C4.34633 15.1679 3.12208 14.0045 1.91258 12.851Z" fill="white"/>
<path d="M15.2761 0L16.6577 1.17809H2.76808L4.04642 0H15.2761Z" fill="white"/>
<path d="M118 9.77813L117.479 9.80758V7.52994C116.824 7.56862 116.167 7.56862 115.512 7.52994C115.222 7.46437 114.918 7.50327 114.653 7.63977C114.389 7.77628 114.181 8.00162 114.067 8.27607C113.831 8.70312 113.496 9.07618 113.236 9.49342C113.203 9.56227 113.156 9.62381 113.099 9.67438C113.042 9.72495 112.975 9.76351 112.903 9.78778C112.83 9.81204 112.753 9.82152 112.677 9.81565C112.601 9.80978 112.527 9.78867 112.459 9.75358L114.067 7.42195L113.772 7.2796C113.366 7.11578 113.019 6.83288 112.778 6.46829C112.536 6.1037 112.412 5.67456 112.42 5.23758C112.366 4.18712 112.685 3.29865 113.688 2.83232C114.14 2.63967 114.623 2.53312 115.114 2.51816C116.097 2.47398 117.027 2.51816 117.985 2.51816L118 9.77813ZM117.449 3.05321C116.466 3.05321 115.522 2.98449 114.588 3.05321C114.132 3.09682 113.71 3.31376 113.41 3.65914C113.11 4.00452 112.954 4.4519 112.975 4.9087C112.936 6.00334 113.418 6.81327 114.396 6.93599C115.413 6.99749 116.433 6.99749 117.449 6.93599V3.05321Z" fill="white"/>
<path d="M12.3752 22.6586C12.3752 22.4328 12.3507 22.3051 12.3507 22.1677C12.3507 20.0913 12.3507 18.01 12.3507 15.9336C12.3682 15.6764 12.4782 15.4341 12.6604 15.2513C14.2239 13.7444 15.8022 12.2717 17.3706 10.755C17.4551 10.6761 17.509 10.5701 17.523 10.4555C17.523 9.71431 17.523 8.98292 17.523 8.10426L12.3752 13.3517V9.61614L12.9505 10.107L19.4061 3.33791V3.8926C19.4061 7.62812 19.4061 11.3685 19.4061 15.109C19.4125 15.3254 19.343 15.5372 19.2094 15.7078C17.0313 17.9511 14.8385 20.1747 12.6457 22.4082L12.3752 22.6586ZM13.7667 18.5303L13.9732 18.6776L17.4148 15.0795C17.464 15.0255 17.5378 14.9617 17.5378 14.9028C17.5378 14.1665 17.5378 13.4302 17.5378 12.8902C16.3676 13.9947 15.1384 15.1482 13.9093 16.3263C13.8269 16.4071 13.7778 16.5156 13.7716 16.6307C13.7372 17.2541 13.7667 17.8922 13.7667 18.5303Z" fill="white"/>
<path d="M10.0939 24.892V4.87925H11.7607C11.7607 5.02651 11.7607 5.18359 11.7607 5.34066C11.7607 11.2311 11.7607 17.1068 11.7607 22.9678C11.7657 23.0989 11.7413 23.2295 11.6895 23.3501C11.6376 23.4707 11.5594 23.5782 11.4607 23.6648C11.0232 24.0919 10.6249 24.5533 10.207 25L10.0939 24.892Z" fill="white"/>
<path d="M9.34167 24.9656C8.77625 24.4011 8.26983 23.9005 7.77817 23.3801C7.69657 23.2789 7.65463 23.1516 7.66017 23.0218C7.66017 17.0266 7.66017 11.0331 7.66017 5.04123C7.66543 4.98812 7.6753 4.93556 7.68967 4.88415H9.34167V24.9656Z" fill="white"/>
<path d="M1.93717 3.51954L1.87817 4.3442L0.0344167 2.09601H19.4012L17.4345 4.33438L17.3755 3.51954H1.93717Z" fill="white"/>
<path d="M60.4996 16.1693C60.6457 16.1022 60.8125 16.0956 60.9635 16.1508C61.1145 16.2059 61.2376 16.3184 61.3059 16.4638C61.8959 17.3817 62.5203 18.28 63.1103 19.193C63.1618 19.2903 63.2414 19.3698 63.3387 19.4215C63.436 19.4731 63.5465 19.4944 63.6561 19.4826C64.0543 19.4826 64.4575 19.4826 64.9049 19.4826V16.1545H65.4261V19.4728C65.9423 19.4728 66.4094 19.4728 66.9011 19.4728C67.0289 19.4728 67.1715 19.3059 67.2551 19.1881C67.8697 18.2849 68.4842 17.3817 69.0693 16.4638C69.1393 16.3201 69.2635 16.21 69.4146 16.1576C69.5657 16.1051 69.7315 16.1146 69.8757 16.184L69.2267 17.1657C68.735 17.8824 68.2728 18.6383 67.7517 19.3157C67.6561 19.4146 67.6028 19.5465 67.6028 19.6839C67.6028 19.8212 67.6561 19.9532 67.7517 20.052C68.4695 21.0338 69.1578 22.0597 69.856 23.066C69.9248 23.1641 69.9838 23.2623 70.0723 23.3949C69.9226 23.4639 69.7523 23.474 69.5955 23.423C69.4387 23.3721 69.3069 23.2638 69.2267 23.12C68.617 22.202 67.9582 21.3087 67.3436 20.3907C67.2727 20.245 67.1575 20.1253 67.0145 20.0486C66.8715 19.9719 66.708 19.9422 66.5471 19.9637C66.198 19.998 65.8391 19.9637 65.4458 19.9637V23.3998H64.9295V19.9539C64.4378 19.9539 63.9462 19.9539 63.4938 19.9539C63.366 19.9539 63.2185 20.1158 63.1349 20.2386C62.4761 21.1614 61.8173 22.0891 61.1683 23.0365C61.0984 23.192 60.9696 23.3135 60.8101 23.3742C60.6506 23.435 60.4735 23.43 60.3177 23.3605C60.3668 23.2721 60.4111 23.174 60.4701 23.0856C61.1879 22.0548 61.8959 21.0141 62.6285 19.9931C62.7114 19.9026 62.7574 19.7844 62.7574 19.6618C62.7574 19.5391 62.7114 19.4209 62.6285 19.3305C61.9992 18.4371 61.3944 17.529 60.7798 16.6258C60.7012 16.4981 60.6127 16.346 60.4996 16.1693Z" fill="white"/>
<path d="M57.8692 9.3658C58.7099 9.28235 59.0639 9.06146 59.2016 8.24661C59.4032 7.05871 59.5015 5.85117 59.5949 4.64854C59.649 3.95641 59.5949 3.25447 59.5949 2.53289H64.4083V9.32653H65.5392V11.452H65.0475V9.84194C64.8656 9.84194 64.7181 9.81249 64.5558 9.81249C62.6383 9.81249 60.7257 9.81249 58.8083 9.81249C58.4002 9.81249 58.2871 9.93521 58.3166 10.3034C58.3461 10.6715 58.3166 11.0446 58.3166 11.4422H57.8249L57.8692 9.3658ZM63.8773 9.31671V2.99431C62.7023 2.99431 61.5567 2.99431 60.4062 2.99431C60.3177 2.99431 60.1751 3.19556 60.1653 3.31337C60.1063 4.32456 60.1013 5.34557 60.0128 6.35676C59.9243 7.36796 59.8948 8.41842 59.2016 9.30198L63.8773 9.31671Z" fill="white"/>
<path d="M39.2989 23.3801V16.1447H39.7906V22.364L39.8791 22.4082C39.9774 22.2904 40.0757 22.1775 40.1692 22.0548C41.6278 20.1797 43.088 18.3029 44.5499 16.4245C44.7417 16.1987 44.9088 16.022 45.2333 16.1987V23.3949H44.7417V17.2197L44.6728 17.1804C44.5745 17.2933 44.4663 17.4013 44.3778 17.5191C42.9127 19.3943 41.4508 21.271 39.9922 23.1494C39.9273 23.2683 39.8197 23.3582 39.691 23.401C39.5624 23.4438 39.4223 23.4364 39.2989 23.3801Z" fill="white"/>
<path d="M28.6052 23.385V16.1496H33.7578V16.5963H29.1558V19.2077C29.9081 19.2077 30.6308 19.1832 31.3634 19.2077C31.8717 19.2178 32.3775 19.2803 32.8728 19.3943C33.258 19.4862 33.6008 19.7055 33.8454 20.0165C34.0899 20.3275 34.222 20.712 34.22 21.1074C34.2813 21.5107 34.2105 21.923 34.0183 22.2829C33.8261 22.6429 33.5226 22.9313 33.1531 23.1052C32.8603 23.2553 32.5416 23.3485 32.214 23.3801C31.0192 23.4047 29.8245 23.385 28.6052 23.385ZM29.1509 22.8942C30.1834 22.8942 31.1963 22.8942 32.2042 22.8942C32.3973 22.8753 32.5854 22.8221 32.7598 22.7371C33.0522 22.6229 33.3005 22.4185 33.4685 22.1536C33.6365 21.8887 33.7155 21.5773 33.6939 21.2645C33.7037 20.9471 33.6069 20.6355 33.4189 20.3794C33.231 20.1232 32.9626 19.9371 32.6565 19.8508C31.506 19.4973 30.3309 19.7281 29.1509 19.6593V22.8942Z" fill="white"/>
<path d="M52.8738 5.81681V2.53289L53.3655 2.50344V9.78304H52.8738V6.38131H48.0113V9.77813H47.4901V2.52798H47.9818V5.81681H52.8738Z" fill="white"/>
<path d="M90.8059 2.52798H91.2976V5.81681H96.17V2.5378L96.6617 2.50344V9.78304H96.17V6.38131H91.2927V9.77813H90.7715L90.8059 2.52798Z" fill="white"/>
<path d="M80.3924 2.45435C81.6117 2.50344 82.7967 2.45435 83.9619 2.61634C84.5358 2.67477 85.0636 2.95613 85.4316 3.39968C85.7995 3.84324 85.978 4.41344 85.9286 4.98724C85.9577 5.57269 85.7591 6.14672 85.3743 6.58944C84.9895 7.03216 84.4482 7.30933 83.8636 7.36305C83.3608 7.41884 82.8551 7.44506 82.3493 7.44159C81.8871 7.44159 81.4249 7.44159 80.8743 7.44159V9.79776H80.3826L80.3924 2.45435ZM80.9185 3.05321V6.92617C81.6363 6.92617 82.3198 6.92617 83.0032 6.92617C83.2269 6.92857 83.4504 6.9138 83.6718 6.88199C84.7879 6.69546 85.3779 6.0377 85.3828 4.99215C85.4072 4.76006 85.3846 4.52546 85.3164 4.30226C85.2482 4.07905 85.1357 3.8718 84.9858 3.6928C84.8359 3.51379 84.6514 3.36668 84.4434 3.26018C84.2355 3.15369 84.0082 3.08998 83.7751 3.07284C82.8238 3.01866 81.8703 3.01375 80.9185 3.05812V3.05321Z" fill="white"/>
<path d="M70.9622 6.33713V9.32653H75.4413C75.4413 9.56705 75.579 9.8174 75.225 9.8174H70.4313V2.54271H75.2791L75.3086 2.94031C75.2051 2.96475 75.0999 2.98117 74.9939 2.9894C73.7943 2.9894 72.5946 2.9894 71.3998 2.9894C71.0606 2.9894 70.9082 3.05812 70.9328 3.43118C70.9622 4.22148 70.9328 5.01178 70.9328 5.85117H74.8022V6.34204L70.9622 6.33713Z" fill="white"/>
<path d="M38.0501 3.01394V5.84626H41.9097V6.33713H38.055V9.32653H42.5095C42.5095 9.57196 42.6472 9.8174 42.2882 9.8174H37.5387V2.54761H42.3522C42.4603 2.86668 42.3522 3.00412 42.0129 2.99921C40.8624 2.99921 39.707 2.99921 38.5713 2.99921C38.3942 2.99431 38.232 3.00903 38.0501 3.01394Z" fill="white"/>
<path d="M101.411 9.74868L102.886 6.56784C103.466 5.3063 104.037 4.04477 104.632 2.78814C104.671 2.71877 104.726 2.65901 104.791 2.61317C104.857 2.56734 104.931 2.53657 105.01 2.52307C105.09 2.52747 105.168 2.55122 105.236 2.59228C105.305 2.63333 105.362 2.69045 105.404 2.75869C106.466 5.02651 107.518 7.30087 108.56 9.58178C108.58 9.6391 108.595 9.69829 108.604 9.75849C108.539 9.79263 108.467 9.81164 108.393 9.8141C108.319 9.81656 108.246 9.80241 108.178 9.77271C108.111 9.743 108.051 9.69851 108.003 9.64251C107.955 9.58652 107.92 9.52046 107.901 9.44924C107.722 8.97535 107.51 8.51446 107.267 8.0699C107.219 7.98852 107.153 7.91867 107.075 7.86525C106.997 7.81183 106.908 7.77613 106.815 7.76065C105.62 7.73611 104.42 7.76065 103.225 7.76065C103.122 7.75146 103.02 7.77895 102.935 7.83824C102.85 7.89754 102.79 7.98483 102.763 8.08463C102.576 8.54113 102.345 8.97801 102.163 9.43452C102.031 9.74376 101.849 9.90575 101.411 9.74868ZM105.015 3.10721L103.137 7.25996H106.908C106.274 5.89044 105.669 4.53564 105.015 3.10721Z" fill="white"/>
<path d="M80.5989 23.3801C80.5333 23.4123 80.4613 23.4295 80.3882 23.4304C80.315 23.4313 80.2426 23.4159 80.1762 23.3854C80.1098 23.3548 80.051 23.3098 80.0042 23.2537C79.9574 23.1976 79.9238 23.1318 79.9057 23.0611C79.7238 22.5702 79.4779 22.1431 79.2812 21.6719C79.2531 21.5735 79.1917 21.4879 79.1074 21.4297C79.0231 21.3715 78.9212 21.3444 78.8191 21.3528C77.6194 21.3528 76.4198 21.3528 75.225 21.3528C75.1382 21.3655 75.0551 21.3966 74.9813 21.444C74.9075 21.4914 74.8448 21.5541 74.7973 21.6277C74.5563 22.0744 74.3695 22.5457 74.1581 23.0071C73.9467 23.4685 73.9614 23.4439 73.4206 23.3507L75.0628 19.7673C75.579 18.6432 76.0953 17.5142 76.6312 16.4C76.6678 16.3269 76.7212 16.2635 76.787 16.2149C76.8528 16.1663 76.9291 16.1339 77.0098 16.1202C77.0904 16.1238 77.1689 16.1472 77.2384 16.1883C77.3078 16.2293 77.3661 16.2869 77.408 16.3558C78.4798 18.6432 79.532 20.9356 80.5842 23.228C80.5958 23.2778 80.6008 23.329 80.5989 23.3801ZM77.0245 16.7239L75.1365 20.8963H78.9273L77.0245 16.7239Z" fill="white"/>
<path d="M51.5857 21.0289V23.3899H51.0645V16.1153C52.3674 16.1791 53.6703 15.9385 54.9438 16.3067C55.4957 16.4488 55.9735 16.7937 56.2816 17.2725C56.5897 17.7512 56.7054 18.3284 56.6056 18.8887C56.5504 19.4455 56.2956 19.9636 55.8882 20.3479C55.4808 20.7321 54.9481 20.9565 54.3882 20.9798C53.6458 21.0485 52.9132 21.0141 52.1462 21.0289H51.5857ZM51.5857 20.6018C52.6133 20.5478 53.6015 20.6018 54.5701 20.4349C55.0056 20.3737 55.4012 20.1484 55.6755 19.8051C55.9498 19.4619 56.082 19.0268 56.0451 18.5892C56.0836 18.1498 55.9522 17.7122 55.678 17.3663C55.4037 17.0204 55.0074 16.7923 54.5701 16.7288C53.5868 16.5865 52.6034 16.611 51.5758 16.5619L51.5857 20.6018Z" fill="white"/>
<path d="M29.7803 2.9894H27.1695V2.5378H32.9072C33.0302 2.85686 32.9564 3.02867 32.5877 2.99921C31.9731 2.99921 31.3585 2.99921 30.7488 2.99921C30.4145 2.99921 30.3113 3.09248 30.3113 3.43118C30.3113 5.3603 30.3113 7.28451 30.3113 9.21363V9.76831H29.7704L29.7803 2.9894Z" fill="white"/>
</svg>
